<svg xmlns="http://www.w3.org/2000/svg" xmlns:xlink="http://www.w3.org/1999/xlink" id="Layer_1" viewBox="0 0 115.1 100.6"><style>.st2{clip-path:url(#SVGID_2_)}</style><path fill="#fed308" d="M86.1 28.1c-3.4-1.4-4.4-2.2-4.4-3.7 0-1.2.9-2.6 3.5-2.6 2.3 0 4 .9 4 .9.2.1.4.2.6.2.5 0 .9-.3 1.1-.8l.6-1.6c.2-.6-.1-1.1-.5-1.3-1.4-.6-4.1-1.1-4.2-1.1 0 0-.2 0-.2-.2v-2.3c0-.7-.6-1.3-1.3-1.3h-1.1c-.7 0-1.3.6-1.3 1.3V18c0 .2-.2.3-.3.3-3.4.8-5.6 3.3-5.6 6.5 0 4 3.3 5.8 6.8 7.1 2.8 1.1 4 2.2 4 3.9 0 1.8-1.6 3.1-4 3.1-2 0-4.7-1.3-4.7-1.3-.2-.1-.4-.1-.5-.1-.5 0-1 .3-1.1.8l-.6 1.6c-.2.6.1 1.1.5 1.3 1.7.9 4.9 1.4 5 1.4 0 0 .2.1.2.3v2.4c0 .7.6 1.3 1.3 1.3h1.2c.7 0 1.3-.6 1.3-1.3v-2.5c0-.2.2-.3.2-.3 3.7-.8 5.9-3.5 5.9-6.9 0-3.5-1.9-5.7-6.4-7.5zm0 0"/><defs><path id="SVGID_1_" d="M.2.1h114.9v100.4H.2z"/></defs><clipPath id="SVGID_2_"><use overflow="visible" xlink:href="#SVGID_1_"/></clipPath><path fill="#fed308" d="M84.7.1C67.9.1 54.3 13.7 54.3 30.5c0 16.8 13.6 30.4 30.4 30.4 16.8 0 30.4-13.6 30.4-30.4C115 13.7 101.4.1 84.7.1zm0 53.7c-12.9 0-23.3-10.4-23.3-23.3S71.8 7.2 84.7 7.2 108 17.6 108 30.5c0 12.8-10.5 23.3-23.3 23.3zm0 0" clip-path="url(#SVGID_2_)"/><path d="M108.9 75.6c-6.5 3.6-15.3 6.9-24.2 8.2C76.8 85 62 82.1 62 78.5c0-1.3 13 3.3 20.9 1.2 6-1.6 5.2-7.3 1.9-8-3.3-.7-22.4-7.7-30.5-8-3.8-.1-13.3 1.3-17.9 2.1-1.6.3-2.6.2-2.7 1.7-.5 7-1.4 21.3-1.8 28.8 0 .2.2 2.3 2 .8 1.9-1.6 4.6-3.5 7.1-2.9 3.9.9 37.7 7.1 42.3 6 6.7-1.5 25.5-12.7 29.2-16.2 5.4-5.4 1-11-3.6-8.4zm0 0M24.3 65.6l-17.7-.9c-1.4-.1-2.8 1-3.1 2.3L.2 96.2c-.3 1.3.5 2.5 1.9 2.5h19.6c1.4.1 2.6-1 2.7-2.4l2.2-28.2c.1-1.3-1-2.5-2.3-2.5zM13.8 94.8c-2.7 0-4.9-2.2-4.9-4.9s2.2-4.9 4.9-4.9 4.9 2.2 4.9 4.9-2.2 4.9-4.9 4.9zm0 0" class="st2"/></svg>