<svg xmlns="http://www.w3.org/2000/svg" xmlns:xlink="http://www.w3.org/1999/xlink" viewBox="0 0 84 92.5"><defs><path id="a" d="M.2 0h84v92.7H.2z"/></defs><clipPath id="b"><use overflow="visible" xlink:href="#a"/></clipPath><g clip-path="url(#b)"><path d="M33.7 71.4c-5.7 1.9-8.8 8-6.9 13.7 1.9 5.7 8 8.8 13.7 6.9 5.7-1.9 8.8-8 6.9-13.7-1.9-5.6-8-8.7-13.7-6.9zm5.1 15.5c-2.8.9-5.9-.6-6.9-3.5-.9-2.9.6-5.9 3.5-6.9 2.8-.9 5.9.6 6.9 3.5.9 2.9-.7 6-3.5 6.9z"/><path fill="#fed308" d="M44.6 65.4c.2.7 1 1.1 1.7.9l35.5-11.7c.7-.2 1.1-1 .9-1.7L71.4 18.7c-.2-.7-1-1.1-1.7-.9L34.2 29.5c-.7.2-1.1 1-.9 1.7l11.3 34.2zm10-33.5l12.1 6.6-2 3.7-5.2-2.9L64 52.9l-4.3 1.4-4.5-13.6-2.5 5.4-3.8-1.8 5.7-12.4z"/><path d="M84 63.6c-.5-1.5-2-2.2-3.5-1.8l-33.2 11c1.2 1.3 2.1 2.9 2.7 4.7 0 .1 0 .1.1.2l32.2-10.6c1.4-.5 2.2-2.1 1.7-3.5zM40.5 68.6L20.3 7.2c-1.8-5.4-7.6-8.3-13-6.6C1.9 2.4-1 8.2.7 13.6c.5 1.5 2 2.2 3.5 1.8 1.5-.5 2.2-2 1.8-3.5-.8-2.5.5-5.2 3-6 2.5-.8 5.2.5 6 3l19.6 59.4c2-.3 4.1-.2 5.9.3z"/></g></svg>