<svg xmlns="http://www.w3.org/2000/svg" xmlns:xlink="http://www.w3.org/1999/xlink" id="Layer_1" viewBox="0 0 80 75.8"><style>.st0{clip-path:url(#SVGID_2_);fill:#ffd306}</style><path d="M50.4 73.8c-1.4-1-1.5-2.6-1.5-2.6l-.5-3.3H31.8l-.5 3.3s-.1 1.5-1.5 2.6c-1.4 1-2.5 1.9-1.4 2 1.1.1 11 0 11.7 0 .7 0 10.7.1 11.7 0 1.1-.1 0-1-1.4-2zm0 0"/><defs><path id="SVGID_1_" d="M0 .1h79.9v76H0z"/></defs><clipPath id="SVGID_2_"><use overflow="visible" xlink:href="#SVGID_1_"/></clipPath><path d="M21.4 47.2c4.4 0 5-1.1 6.4-5.5 2.7-7 14.6 1.8 7.2 4.9-7.4 3-18.1.6-13.6.6zm0 0" class="st0"/><path d="M66.8 1c-2.1-1.7-5.7-.9-7.9 1.9L36.1 35.2c-2.2 2.8-2.2 2.3-.1 4 2.1 1.7 1.6 1.9 3.9-.9L66.6 9.2c2.2-2.8 2.3-6.5.2-8.2zm-5.9 3.8s-.3-.4-1.4-1.3c1.7-2.7 4.9-2.2 4.9-2.2-3.1 1.9-3.5 3.5-3.5 3.5zm0 0" class="st0"/><path d="M76.8 11.9h-10l-4.4 4.8h12.8v38.4H4.8V16.7h41l3.4-4.8h-46c-1.8 0-3.2 1.4-3.2 3.2v46.4c0 1.8 1.4 3.2 3.2 3.2h73.6c1.8 0 3.2-1.4 3.2-3.2V15.1c0-1.8-1.4-3.2-3.2-3.2zm0 0" clip-path="url(#SVGID_2_)"/></svg>