<svg xmlns="http://www.w3.org/2000/svg" viewBox="0 0 162 19"><path fill-rule="evenodd" d="M74.5 12.1l-4.2-7.4c-.1-.1-.3-.1-.3 0-.8 1.4-1.3 3-1.3 4.7 0 1 .1 1.9.4 2.8 0 .1.1.1.2.1h5c.2.1.3-.1.2-.2zm-.8-4.5c.1.1.3.1.3 0L78.2.2c.1-.1 0-.3-.2-.3-2.7 0-5.1 1.2-6.9 3-.1.1-.1.2 0 .2l2.6 4.5zm13.1-1.1h-5c-.1 0-.2.2-.2.3l4.2 7.4c.1.1.3.1.3 0 .8-1.4 1.3-3 1.3-4.7 0-1-.1-1.9-.4-2.8-.1-.2-.1-.2-.2-.2zM77.6 5H86c.1 0 .2-.2.2-.3-1.3-2.2-3.5-3.9-6-4.5-.1 0-.2 0-.2.1l-2.5 4.4c-.2.1-.1.3.1.3zm1 8.8h-8.4c-.1 0-.2.2-.2.3 1.3 2.2 3.5 3.9 6 4.5.1 0 .2 0 .2-.1l2.5-4.4c.1-.1 0-.3-.1-.3zm3.8-2.6c-.1-.1-.3-.1-.3 0l-4.2 7.4c-.1.1 0 .3.2.3 2.7 0 5.2-1.2 6.9-3 .1-.1.1-.2 0-.2l-2.6-4.5zM5.9.6H.2C.1.6 0 .8 0 1v17.5c0 .1.1.2.2.2H3c.1 0 .2-.1.2-.2v-3.1c0-1.2 0-2.5-.1-3.3.6.1 1.5.1 2.5.1 4.4 0 6.8-2.2 6.8-5.7 0-3.2-2.1-5.9-6.5-5.9zm-.6 9.1c-.6 0-1.4 0-2.1.1.1-.9.1-2.4.1-3.5 0-.9 0-2.5-.1-3.3h2.4C8 3 9 4.4 9 6.4c0 2.3-1.3 3.3-3.7 3.3zM29.8.6H27c-.1 0-.2.1-.2.3v3.8c0 1.1 0 2.2.1 3.2-.8-.1-1.6-.1-2.5-.1h-3.8c-.9 0-1.8 0-2.6.1v-7c0-.1-.1-.3-.2-.3H15c-.1 0-.2.1-.2.3v17.6c0 .1.1.2.2.2h2.8c.1 0 .2-.1.2-.2V14c0-1.2 0-2.4-.1-3.6 1 .1 1.6.1 2.5.1h3.9c.9 0 1.5 0 2.5-.1-.1 1.2-.1 2.4-.1 3.6v4.5c0 .1.1.2.2.2h2.8c.1 0 .2-.1.2-.2V.9c.1-.2 0-.3-.1-.3zM42.1 0C37.3 0 33 3.6 33 9.4c0 5.9 4.1 9.6 9.1 9.6 5.3 0 9.1-3.9 9.1-9.6C51.3 3.5 47 0 42.1 0zm0 16.4c-3.6 0-5.5-2.8-5.5-7 0-4.6 2.3-6.7 5.6-6.7 3.2 0 5.5 2.1 5.5 6.7 0 4.2-1.8 7-5.6 7zM68 .6H52.9c-.1 0-.2.1-.2.2L52.4 3c0 .1.1.2.2.2 1.2 0 2.1-.1 3.2-.1 1 0 2 0 3-.1-.1 1-.1 2-.1 2.9v12.5c0 .1.1.2.2.2h2.8c.1 0 .2-.1.2-.2V6c0-.9 0-1.9-.1-2.9 1.1.1 2.2.1 3.3.1.9 0 2 .1 2.8.1.1 0 .2-.1.2-.2V.8c.1-.1 0-.2-.1-.2zM98.1 9c2-.5 3.9-1.9 3.9-4.1 0-2-1.3-4.3-5.9-4.3H90c-.1 0-.2.1-.2.3v17.6c0 .1.1.2.2.2h7.2c3.8 0 6-1.8 6-4.8-.1-2.8-2.4-4.7-5.1-4.9zm-5.2-6.1c.8.1 1.8.1 2.6.1 2.3 0 3.2.8 3.2 2.6 0 1.6-1 2.6-3.6 2.6-.8 0-1.5 0-2.2.1.1-.9.1-1.9.1-2.7 0-.9 0-1.8-.1-2.7zm3.7 13.4c-1.2 0-2.5 0-3.7.1.1-1 .1-2 .1-3 0-1.1 0-2.1-.1-3 .9.1 1.9.1 2.9.1 2.9 0 4 1.2 4 3.1 0 1.7-1 2.7-3.2 2.7zM114.1 0c-4.9 0-9.1 3.6-9.1 9.3 0 5.9 4.1 9.6 9.1 9.6 5.3 0 9.1-3.9 9.1-9.6 0-5.8-4.2-9.3-9.1-9.3zm0 16.4c-3.6 0-5.5-2.8-5.5-7 0-4.6 2.3-6.7 5.6-6.7 3.2 0 5.5 2.1 5.5 6.7-.1 4.2-1.9 7-5.6 7zM134.4 0c-4.9 0-9.1 3.6-9.1 9.3 0 5.9 4.1 9.6 9.1 9.6 5.3 0 9.1-3.9 9.1-9.6 0-5.8-4.2-9.3-9.1-9.3zm0 16.4c-3.6 0-5.5-2.8-5.5-7 0-4.6 2.3-6.7 5.6-6.7 3.2 0 5.5 2.1 5.5 6.7-.1 4.2-1.9 7-5.6 7zm27.4 1.5c-.8-.4-3.2-3-5.3-5.3-1.7-1.9-3.2-3.5-3.7-3.7.6-.3 1.8-1.6 3.1-3 2.2-2.5 4-4.3 4.6-4.6.1-.1.1-.2.1-.3 0-.2-.1-.3-.2-.3h-3.2c-.2 0-.3.1-.4.2-1.1 1.2-2.4 2.7-3.4 3.9-1.7 2.1-3 3.4-3.4 3.4h-.5c.1-.9.1-2 .1-3V.9c0-.1-.1-.3-.2-.3h-2.8c-.1 0-.2.1-.2.3v17.6c0 .1.1.2.2.2h2.8c.1 0 .2-.1.2-.2v-4.9c0-1.2 0-2.5-.1-3.4h.5c.6 0 1.9 1.4 3.7 3.6 1.3 1.6 2.8 3.3 4.1 4.7.1.1.3.2.5.2h3.5c.1 0 .2-.1.2-.4 0-.2 0-.3-.2-.4z" clip-rule="evenodd"/></svg>